<svg width="16" height="16" viewBox="0 0 16 16" fill="none" xmlns="http://www.w3.org/2000/svg">
<path d="M14.8571 6.71519H3.42857L7.18857 2.95519C7.29569 2.84895 7.38071 2.72255 7.43873 2.58328C7.49675 2.44401 7.52663 2.29463 7.52663 2.14376C7.52663 1.99289 7.49675 1.84351 7.43873 1.70425C7.38071 1.56498 7.29569 1.43858 7.18857 1.33233C6.97444 1.11948 6.68478 1 6.38286 1C6.08093 1 5.79127 1.11948 5.57714 1.33233L0.674286 6.24662C0.245043 6.67331 0.00255176 7.25282 0 7.85805C0.00556181 8.45931 0.247822 9.03417 0.674286 9.45805L5.57714 14.3723C5.6837 14.4781 5.81006 14.5619 5.94899 14.6189C6.08793 14.6759 6.23673 14.7049 6.3869 14.7044C6.53706 14.7039 6.68565 14.6738 6.82419 14.6158C6.96272 14.5579 7.08848 14.4732 7.19429 14.3666C7.30009 14.2601 7.38388 14.1337 7.44085 13.9948C7.49783 13.8558 7.52688 13.707 7.52635 13.5569C7.52582 13.4067 7.49572 13.2581 7.43776 13.1196C7.3798 12.981 7.29513 12.8553 7.18857 12.7495L3.42857 9.00091H14.8571C15.1602 9.00091 15.4509 8.8805 15.6653 8.66617C15.8796 8.45184 16 8.16115 16 7.85805C16 7.55494 15.8796 7.26425 15.6653 7.04993C15.4509 6.8356 15.1602 6.71519 14.8571 6.71519Z" fill="black"/>
</svg>
