<svg width="16" height="16" viewBox="0 0 16 16" fill="none" xmlns="http://www.w3.org/2000/svg">
<g clip-path="url(#clip0_114_10)">
<path d="M0.292893 14.2929C-0.097631 14.6834 -0.097631 15.3166 0.292893 15.7071C0.683418 16.0976 1.31658 16.0976 1.70711 15.7071L0.292893 14.2929ZM16 0L4.84645 2.98858L13.0114 11.1536L16 0ZM1.70711 15.7071C1.7126 15.7016 1.71809 15.6961 1.72359 15.6906C1.72908 15.6851 1.73458 15.6796 1.74008 15.6741C1.78301 15.6312 1.73013 15.6841 1.77307 15.6411C1.77857 15.6356 1.78408 15.6301 1.78958 15.6246C1.79508 15.6191 1.80059 15.6136 1.80609 15.6081C1.86244 15.5518 1.78278 15.6314 1.83914 15.5751C1.89796 15.5162 1.84645 15.5678 1.90531 15.5089C1.95947 15.4547 1.91738 15.4968 1.97158 15.4426C1.99989 15.4143 2.07597 15.3382 2.1044 15.3098C2.14739 15.2668 2.19449 15.2197 2.2376 15.1766C2.26722 15.147 2.34143 15.0728 2.37116 15.0431C2.43714 14.9771 2.43897 14.9752 2.50506 14.9092C2.57461 14.8396 2.50256 14.9117 2.57214 14.8421C2.5781 14.8361 2.59974 14.8145 2.6057 14.8085C2.61319 14.801 2.6318 14.7824 2.63929 14.7749C2.71243 14.7018 2.63336 14.7809 2.70652 14.7077C2.714 14.7002 2.73268 14.6815 2.74017 14.674C2.74578 14.6684 2.75139 14.6628 2.757 14.6572C2.76261 14.6516 2.76822 14.646 2.77383 14.6404C2.80372 14.6105 2.81131 14.6029 2.84122 14.573C2.8462 14.568 2.90366 14.5106 2.90867 14.5055C2.9349 14.4793 2.91619 14.498 2.94243 14.4718C2.95933 14.4549 2.95929 14.4549 2.9762 14.438C2.98183 14.4324 2.98746 14.4268 2.99309 14.4211C2.99873 14.4155 3.00436 14.4099 3.00999 14.4042C3.019 14.3952 3.03478 14.3794 3.0438 14.3704C3.10387 14.3103 3.05137 14.3628 3.11146 14.3028C3.1235 14.2907 3.16712 14.2471 3.17919 14.235C3.18484 14.2294 3.19048 14.2237 3.19613 14.2181C3.20178 14.2124 3.20743 14.2068 3.21308 14.2011C3.24929 14.1649 3.21076 14.2034 3.24698 14.1672C3.2685 14.1457 3.25938 14.1548 3.2809 14.1333C3.28655 14.1277 3.29221 14.122 3.29786 14.1164C3.30352 14.1107 3.30918 14.105 3.31483 14.0994C3.32049 14.0937 3.32615 14.0881 3.33181 14.0824C3.33746 14.0768 3.34312 14.0711 3.34878 14.0654C3.35444 14.0598 3.3601 14.0541 3.36576 14.0485C3.37142 14.0428 3.37708 14.0371 3.38275 14.0315C3.41911 13.9951 3.41433 13.9999 3.45071 13.9635C3.51115 13.9031 3.42428 13.9899 3.48472 13.9295C3.49039 13.9238 3.49606 13.9182 3.50173 13.9125C3.5074 13.9068 3.51307 13.9011 3.51874 13.8955C3.52479 13.8894 3.54672 13.8675 3.55277 13.8614C3.59055 13.8237 3.54904 13.8652 3.58682 13.8274C3.65944 13.7548 3.65044 13.7638 3.72313 13.6911C3.78365 13.6306 3.73083 13.6834 3.79136 13.6229C3.79705 13.6172 3.80274 13.6115 3.80843 13.6058C3.81412 13.6001 3.8198 13.5944 3.82549 13.5887C3.84067 13.5735 3.84446 13.5698 3.85964 13.5546C3.93549 13.4787 3.85209 13.5621 3.92796 13.4863C3.94315 13.4711 3.94694 13.4673 3.96213 13.4521C3.96783 13.4464 3.97353 13.4407 3.97923 13.435C3.98492 13.4293 3.99062 13.4236 3.99632 13.4179C4.05695 13.3573 4.07248 13.3417 4.13317 13.281C4.19356 13.2207 4.34671 13.0675 4.40728 13.0069C4.413 13.0012 4.41871 12.9955 4.42443 12.9898C4.43015 12.9841 4.43587 12.9783 4.44158 12.9726C4.4473 12.9669 4.45302 12.9612 4.45874 12.9555C4.46445 12.9498 4.47017 12.944 4.47589 12.9383C4.48161 12.9326 4.48733 12.9269 4.49305 12.9212C4.49876 12.9154 4.50448 12.9097 4.5102 12.904C4.51592 12.8983 4.52164 12.8926 4.52736 12.8869C4.53308 12.8811 4.5388 12.8754 4.54452 12.8697C4.58513 12.8291 4.57257 12.8416 4.61318 12.801C4.61891 12.7953 4.62463 12.7896 4.63035 12.7839C4.63608 12.7781 4.6418 12.7724 4.64752 12.7667C4.65325 12.761 4.65897 12.7552 4.6647 12.7495C4.67042 12.7438 4.67614 12.7381 4.68187 12.7323C4.71995 12.6943 4.67813 12.7361 4.71622 12.698C4.77732 12.6369 4.68947 12.7247 4.75057 12.6636C4.7563 12.6579 4.76203 12.6522 4.76775 12.6465C4.77348 12.6407 4.77921 12.635 4.78493 12.6293C4.79066 12.6236 4.79639 12.6178 4.80212 12.6121C4.80784 12.6064 4.81357 12.6006 4.8193 12.5949C4.82503 12.5892 4.83076 12.5835 4.83648 12.5777C4.84221 12.572 4.84794 12.5663 4.85367 12.5605C4.8594 12.5548 4.86513 12.5491 4.87086 12.5434C4.87658 12.5376 4.88231 12.5319 4.88804 12.5262C4.89377 12.5204 4.8995 12.5147 4.90523 12.509C4.91096 12.5033 4.91669 12.4975 4.92242 12.4918C4.92815 12.4861 4.93388 12.4803 4.93961 12.4746C4.94534 12.4689 4.95107 12.4631 4.9568 12.4574C5.01772 12.3965 4.96465 12.4496 5.02558 12.3886C5.02558 12.3886 5.09436 12.3199 5.09436 12.3199C5.1403 12.2739 5.08282 12.3314 5.12876 12.2855C5.13449 12.2797 5.14023 12.274 5.14596 12.2683C5.15169 12.2625 5.15743 12.2568 5.16316 12.2511C5.209 12.2052 5.15172 12.2625 5.19756 12.2167C5.20329 12.2109 5.20903 12.2052 5.21476 12.1995C5.2205 12.1937 5.22623 12.188 5.23196 12.1822C5.27275 12.1415 5.25999 12.1542 5.30078 12.1134C5.30651 12.1077 5.31225 12.102 5.31798 12.0962C5.32371 12.0905 5.32945 12.0848 5.33518 12.079C5.34092 12.0733 5.34665 12.0676 5.35239 12.0618C5.35812 12.0561 5.36386 12.0504 5.36959 12.0446C5.40018 12.014 5.37341 12.0408 5.404 12.0102C5.4652 11.949 5.37722 12.037 5.43841 11.9758C5.49942 11.9148 5.44623 11.968 5.50723 11.907C5.58857 11.8256 5.56354 11.8507 5.64487 11.7693C5.6506 11.7636 5.65634 11.7579 5.66207 11.7521C5.66781 11.7464 5.67354 11.7407 5.67928 11.7349C5.69763 11.7166 5.69533 11.7189 5.71368 11.7005C5.71942 11.6948 5.72515 11.6891 5.73088 11.6833C5.73662 11.6776 5.74235 11.6719 5.74809 11.6661C5.77865 11.6356 5.75193 11.6623 5.78249 11.6317C5.84342 11.5708 5.99674 11.4175 6.05761 11.3566C6.06334 11.3509 6.06907 11.3451 6.0748 11.3394C6.08053 11.3337 6.08626 11.328 6.09198 11.3222C6.09771 11.3165 6.10344 11.3108 6.10917 11.305C6.1149 11.2993 6.12063 11.2936 6.12636 11.2879C6.13208 11.2821 6.13781 11.2764 6.14354 11.2707C6.14927 11.2649 6.15499 11.2592 6.16072 11.2535C6.176 11.2382 6.1798 11.2344 6.19508 11.2191C6.20081 11.2134 6.20654 11.2077 6.21226 11.202C6.21799 11.1962 6.22371 11.1905 6.22944 11.1848C6.23516 11.179 6.24089 11.1733 6.24662 11.1676C6.25234 11.1619 6.25807 11.1561 6.26379 11.1504C6.26951 11.1447 6.27524 11.139 6.28096 11.1333C6.28669 11.1275 6.29241 11.1218 6.29814 11.1161C6.30386 11.1104 6.30958 11.1046 6.31531 11.0989C6.32103 11.0932 6.32675 11.0875 6.33248 11.0817C6.45611 10.9581 6.48348 10.9307 6.60697 10.8072C6.66807 10.7461 6.61443 10.7998 6.67552 10.7387C6.68123 10.733 6.68694 10.7273 6.69265 10.7216C6.69836 10.7159 6.70407 10.7101 6.70978 10.7044C6.71549 10.6987 6.7212 10.693 6.72691 10.6873C6.73262 10.6816 6.73833 10.6759 6.74403 10.6702C6.77454 10.6397 6.74778 10.6664 6.77828 10.6359C6.8239 10.5903 6.7669 10.6473 6.81252 10.6017C6.84298 10.5712 6.85051 10.5637 6.88096 10.5333C6.9418 10.4724 6.95695 10.4573 7.01774 10.3965C7.0481 10.3661 7.02155 10.3927 7.0519 10.3623C7.11259 10.3016 7.02538 10.3888 7.08606 10.3282C7.11637 10.2978 7.12404 10.2902 7.15434 10.2599C7.16192 10.2523 7.18089 10.2333 7.18846 10.2257C7.19605 10.2182 7.21499 10.1992 7.22258 10.1916C7.25295 10.1613 7.26041 10.1538 7.29076 10.1235C7.29644 10.1178 7.30212 10.1121 7.3078 10.1064C7.31348 10.1007 7.31916 10.0951 7.32484 10.0894C7.33051 10.0837 7.33619 10.078 7.34187 10.0723C7.34755 10.0667 7.35322 10.061 7.3589 10.0553C7.40434 10.0099 7.34751 10.0667 7.39295 10.0213C7.41815 9.99606 7.40178 10.0124 7.42698 9.98723C7.43265 9.98156 7.43833 9.97589 7.444 9.97022C7.44967 9.96455 7.45534 9.95888 7.46101 9.95321C7.46667 9.94754 7.47234 9.94187 7.47801 9.9362C7.48368 9.93053 7.48935 9.92487 7.49501 9.9192C7.50068 9.91353 7.50635 9.90787 7.51201 9.9022C7.51768 9.89654 7.52334 9.89087 7.52901 9.88521C7.5441 9.87011 7.5479 9.86631 7.56299 9.85122C7.56865 9.84556 7.57431 9.8399 7.57997 9.83424C7.58564 9.82858 7.5913 9.82292 7.59696 9.81726C7.60262 9.8116 7.60828 9.80594 7.61393 9.80028C7.61959 9.79462 7.62525 9.78896 7.63091 9.78331C7.63657 9.77765 7.64222 9.77199 7.64788 9.76634C7.65353 9.76068 7.65919 9.75502 7.66485 9.74937C7.6705 9.74371 7.67615 9.73806 7.68181 9.73241C7.68746 9.72675 7.69311 9.7211 7.69877 9.71545C7.7063 9.70792 7.72515 9.68907 7.73267 9.68154C7.73832 9.67589 7.74397 9.67024 7.74962 9.66459C7.75527 9.65894 7.76092 9.6533 7.76656 9.64765C7.81164 9.60257 7.78924 9.62497 7.8343 9.57991C7.89494 9.51928 7.90902 9.50519 7.96957 9.44464C7.9752 9.43901 7.98083 9.43338 7.98646 9.42775C7.99209 9.42212 7.99772 9.41649 8.00335 9.41087C8.06334 9.35087 7.97712 9.43709 8.03711 9.37711C8.08205 9.33216 8.05965 9.35456 8.10457 9.30964C8.11956 9.29465 8.157 9.25722 8.17196 9.24225C8.17758 9.23664 8.18319 9.23103 8.1888 9.22542C8.19441 9.2198 8.20002 9.21419 8.20563 9.20858C8.23558 9.17864 8.20934 9.20487 8.23928 9.17494C8.28415 9.13006 8.22804 9.18617 8.27291 9.14131C8.30279 9.11142 8.27665 9.13757 8.30652 9.10769C8.31212 9.10209 8.31772 9.09649 8.32332 9.0909C8.32892 9.0853 8.33451 9.0797 8.34011 9.0741C8.34571 9.06851 8.3513 9.06291 8.3569 9.05731C8.36249 9.05172 8.36809 9.04613 8.37368 9.04053C8.37928 9.03494 8.38487 9.02935 8.39046 9.02375C8.39605 9.01816 8.40164 9.01257 8.40723 9.00698C8.42214 8.99208 8.42587 8.98835 8.44077 8.97345C8.44635 8.96786 8.45194 8.96228 8.45752 8.95669C8.46311 8.95111 8.46869 8.94552 8.47428 8.93994C8.51888 8.89534 8.46317 8.95104 8.50777 8.90645C8.51335 8.90087 8.51893 8.89529 8.5245 8.88971C8.53008 8.88413 8.53566 8.87856 8.54124 8.87298C8.56354 8.85068 8.55239 8.86183 8.57468 8.83953C8.61923 8.79498 8.56357 8.85065 8.60811 8.8061C8.62297 8.79124 8.62666 8.78756 8.64152 8.7727C8.64708 8.76713 8.65265 8.76157 8.65821 8.75601C8.66377 8.75044 8.66934 8.74488 8.6749 8.73932C8.71937 8.69484 8.66379 8.75042 8.70826 8.70596C8.76747 8.64675 8.71573 8.69848 8.77491 8.6393C8.78046 8.63375 8.78601 8.6282 8.79156 8.62265C8.79711 8.6171 8.80266 8.61155 8.80821 8.60601C8.81375 8.60046 8.8193 8.59491 8.82484 8.58937C8.83039 8.58382 8.83593 8.57828 8.84148 8.57274C8.84702 8.56719 8.85256 8.56165 8.8581 8.55611C8.86364 8.55057 8.86918 8.54503 8.87472 8.53949C8.88026 8.53395 8.8858 8.52841 8.89134 8.52288C8.89688 8.51734 8.90241 8.5118 8.90795 8.50627C8.91348 8.50073 8.91902 8.4952 8.92455 8.48966C8.93008 8.48413 8.93562 8.4786 8.94115 8.47307C8.97061 8.4436 8.94487 8.46935 8.97432 8.43989C8.97985 8.43437 8.98538 8.42884 8.9909 8.42331C8.99643 8.41779 9.00195 8.41226 9.00747 8.40674C9.013 8.40122 9.01852 8.3957 9.02404 8.39017C9.02956 8.38465 9.03508 8.37913 9.0406 8.37361C9.04612 8.3681 9.05164 8.36258 9.05715 8.35706C9.06267 8.35154 9.06819 8.34603 9.0737 8.34051C9.07922 8.335 9.08473 8.32948 9.09024 8.32397C9.09576 8.31846 9.10127 8.31295 9.10678 8.30744C9.11229 8.30192 9.1178 8.29641 9.12331 8.29091C9.12882 8.2854 9.13432 8.27989 9.13983 8.27438C9.14534 8.26888 9.15084 8.26337 9.15635 8.25787C9.16185 8.25236 9.16736 8.24686 9.17286 8.24136C9.17836 8.23585 9.18386 8.23035 9.18936 8.22485C9.19486 8.21935 9.20036 8.21385 9.20586 8.20836C9.21136 8.20286 9.21685 8.19736 9.22235 8.19186C9.22785 8.18637 9.23334 8.18087 9.23883 8.17538C9.24433 8.16989 9.24982 8.16439 9.25531 8.1589C9.2608 8.15341 9.26629 8.14792 9.27178 8.14243C9.27727 8.13694 9.28276 8.13145 9.28825 8.12597C9.29373 8.12048 9.29922 8.11499 9.30471 8.10951C9.31019 8.10402 9.31567 8.09854 9.32116 8.09306C9.32664 8.08758 9.33212 8.08209 9.3376 8.07661C9.34308 8.07113 9.34856 8.06565 9.35404 8.06018C9.35952 8.0547 9.36499 8.04922 9.37047 8.04374C9.37595 8.03827 9.38142 8.03279 9.38689 8.02732C9.39237 8.02185 9.39784 8.01637 9.40331 8.0109C9.40878 8.00543 9.41425 7.99996 9.41972 7.99449C9.42519 7.98902 9.43066 7.98355 9.43613 7.97809C9.44159 7.97262 9.44706 7.96715 9.45252 7.96169C9.45799 7.95623 9.46345 7.95076 9.46891 7.9453C9.47438 7.93984 9.47984 7.93438 9.4853 7.92892C9.49076 7.92346 9.49622 7.918 9.50167 7.91254C9.50713 7.90708 9.51259 7.90163 9.51804 7.89617C9.5235 7.89072 9.52895 7.88526 9.53441 7.87981C9.53986 7.87436 9.54531 7.8689 9.55076 7.86345C9.55621 7.858 9.56166 7.85255 9.56711 7.84711C9.57256 7.84166 9.578 7.83621 9.58345 7.83076C9.5889 7.82532 9.59434 7.81987 9.59978 7.81443C9.60523 7.80899 9.61067 7.80355 9.61611 7.7981C9.62155 7.79266 9.62699 7.78722 9.63243 7.78179C9.63787 7.77635 9.64331 7.77091 9.64874 7.76547C9.65418 7.76004 9.65961 7.7546 9.66505 7.74917C9.67048 7.74373 9.67591 7.7383 9.68134 7.73287C9.68678 7.72744 9.69221 7.72201 9.69763 7.71658C9.75545 7.65877 9.77004 7.64418 9.82769 7.58652C9.88541 7.5288 9.83486 7.57936 9.89254 7.52168C9.90696 7.50726 9.9105 7.50371 9.92491 7.4893C9.94648 7.46773 9.9357 7.47851 9.95726 7.45696C9.96265 7.45157 9.96803 7.44618 9.97342 7.44079C9.97881 7.43541 9.98419 7.43002 9.98957 7.42464C9.99496 7.41926 10.0003 7.41388 10.0057 7.4085C10.0111 7.40311 10.0165 7.39774 10.0219 7.39236C10.0272 7.38698 10.0326 7.3816 10.038 7.37623C10.0434 7.37085 10.0487 7.36548 10.0541 7.36011C10.0595 7.35473 10.0649 7.34936 10.0702 7.34399C10.0756 7.33862 10.081 7.33325 10.0863 7.32789C10.0917 7.32252 10.0971 7.31715 10.1024 7.31179C10.1078 7.30643 10.1132 7.30106 10.1185 7.2957C10.1239 7.29034 10.1292 7.28498 10.1346 7.27962C10.14 7.27426 10.1453 7.2689 10.1507 7.26355C10.156 7.25819 10.1614 7.25283 10.1667 7.24748C10.1721 7.24213 10.1774 7.23677 10.1828 7.23142C10.2399 7.17431 10.1578 7.25644 10.2149 7.19933C10.2339 7.18034 10.228 7.18626 10.2469 7.16728C10.2523 7.16194 10.2576 7.1566 10.263 7.15126C10.2683 7.14593 10.2736 7.14059 10.279 7.13526C10.2843 7.12992 10.2896 7.12459 10.295 7.11926C10.3003 7.11393 10.3056 7.1086 10.3109 7.10327C10.3163 7.09794 10.3216 7.09261 10.3269 7.08729C10.3323 7.08196 10.3376 7.07664 10.3429 7.07131L8.92869 5.6571C8.92336 5.66242 8.91804 5.66775 8.91271 5.67307C8.90739 5.6784 8.90206 5.68373 8.89673 5.68905C8.88252 5.70326 8.87896 5.70682 8.86474 5.72104C8.85054 5.73525 8.81492 5.77087 8.80067 5.78512C8.75315 5.83264 8.78401 5.80177 8.73646 5.84933C8.72217 5.86362 8.7186 5.86719 8.7043 5.88149C8.69894 5.88685 8.69358 5.89221 8.68821 5.89758C8.68285 5.90294 8.67748 5.90831 8.67211 5.91367C8.66675 5.91904 8.66138 5.92441 8.65601 5.92978C8.65064 5.93515 8.64527 5.94052 8.63989 5.94589C8.63452 5.95127 8.62915 5.95664 8.62377 5.96201C8.6184 5.96739 8.61302 5.97277 8.60764 5.97814C8.60227 5.98352 8.59689 5.9889 8.59151 5.99428C8.58612 5.99966 8.58074 6.00504 8.57536 6.01043C8.56998 6.01581 8.56459 6.0212 8.55921 6.02658C8.55382 6.03197 8.54843 6.03735 8.54305 6.04274C8.52868 6.05711 8.52508 6.06071 8.5107 6.07509C8.50531 6.08048 8.49991 6.08588 8.49451 6.09127C8.48912 6.09667 8.48372 6.10207 8.47832 6.10747C8.43507 6.15072 8.45677 6.12902 8.41348 6.17231C8.40807 6.17772 8.40266 6.18313 8.39725 6.18854C8.39183 6.19395 8.38642 6.19937 8.38101 6.20478C8.37559 6.21019 8.37018 6.21561 8.36476 6.22103C8.35934 6.22644 8.35393 6.23186 8.34851 6.23728C8.34309 6.2427 8.33767 6.24812 8.33225 6.25354C8.32683 6.25896 8.3214 6.26438 8.31598 6.26981C8.31056 6.27523 8.30513 6.28066 8.2997 6.28608C8.29428 6.29151 8.28885 6.29694 8.28342 6.30237C8.27799 6.3078 8.27256 6.31323 8.26713 6.31866C8.2617 6.32409 8.25627 6.32952 8.25083 6.33495C8.2454 6.34039 8.23996 6.34582 8.23453 6.35126C8.22909 6.3567 8.22365 6.36213 8.21822 6.36757C8.21278 6.37301 8.20734 6.37845 8.2019 6.38389C8.19646 6.38933 8.19101 6.39477 8.18557 6.40022C8.18013 6.40566 8.17468 6.41111 8.16924 6.41655C8.16379 6.422 8.15834 6.42744 8.1529 6.43289C8.14745 6.43834 8.142 6.44379 8.13655 6.44924C8.1311 6.45469 8.12564 6.46014 8.12019 6.4656C8.11474 6.47105 8.10928 6.4765 8.10383 6.48196C8.09837 6.48741 8.09292 6.49287 8.08746 6.49833C8.082 6.50378 8.07654 6.50924 8.07108 6.5147C8.06562 6.52016 8.06016 6.52562 8.0547 6.53109C8.04924 6.53655 8.04378 6.54201 8.03831 6.54748C8.03285 6.55294 8.02738 6.55841 8.02191 6.56387C8.01645 6.56934 8.01098 6.57481 8.00551 6.58028C8.00004 6.58575 7.99457 6.59122 7.9891 6.59669C7.98363 6.60216 7.97815 6.60763 7.97268 6.61311C7.96721 6.61858 7.96173 6.62405 7.95626 6.62953C7.95078 6.63501 7.9453 6.64048 7.93983 6.64596C7.93435 6.65144 7.92887 6.65692 7.92339 6.6624C7.91791 6.66788 7.91243 6.67336 7.90694 6.67884C7.90146 6.68433 7.89598 6.68981 7.89049 6.6953C7.6624 6.92338 7.5909 6.99489 7.3607 7.22509C7.33111 7.25468 7.32367 7.26212 7.29405 7.29174C7.28849 7.2973 7.28293 7.30286 7.27737 7.30842C7.27181 7.31398 7.26625 7.31954 7.26068 7.3251C7.25512 7.33066 7.24956 7.33623 7.244 7.34179C7.23843 7.34736 7.23287 7.35292 7.2273 7.35849C7.2273 7.35849 7.09367 7.49212 7.09355 7.49223C7.03397 7.55181 7.01916 7.56663 6.95947 7.62632C6.95388 7.63191 6.94828 7.63751 6.94269 7.6431C6.93709 7.6487 6.93149 7.65429 6.9259 7.65989C6.91098 7.6748 6.90723 7.67856 6.89231 7.69348C6.88671 7.69908 6.88111 7.70468 6.8755 7.71028C6.8699 7.71589 6.8643 7.72149 6.8587 7.72709C6.82878 7.757 6.85498 7.7308 6.82507 7.76072C6.81946 7.76633 6.81385 7.77194 6.80824 7.77754C6.80264 7.78315 6.79703 7.78876 6.79142 7.79437C6.76896 7.81682 6.78021 7.80558 6.75775 7.82804C6.72781 7.85798 6.72032 7.86546 6.69036 7.89543C6.62996 7.95582 6.61585 7.96994 6.55536 8.03043C6.54973 8.03606 6.5441 8.04169 6.53846 8.04732C6.53283 8.05295 6.5272 8.05859 6.52157 8.06422C6.47654 8.10924 6.53278 8.053 6.48776 8.09803C6.45772 8.12807 6.45014 8.13564 6.42009 8.1657C6.40507 8.18071 6.36738 8.2184 6.35235 8.23344C6.3467 8.23908 6.34106 8.24473 6.33541 8.25038C6.32976 8.25603 6.32411 8.26168 6.31846 8.26733C6.28082 8.30497 6.3222 8.26359 6.28455 8.30123C6.25434 8.33145 6.17907 8.40672 6.14878 8.43701C6.10352 8.48227 6.16006 8.42573 6.1148 8.47099C6.10913 8.47666 6.10347 8.48232 6.0978 8.48799C6.09213 8.49365 6.08647 8.49932 6.0808 8.50499C6.07513 8.51065 6.06947 8.51632 6.0638 8.52199C6.05813 8.52766 6.05246 8.53333 6.04679 8.539C6.04112 8.54466 6.03545 8.55033 6.02978 8.556C6.02411 8.56168 6.01844 8.56735 6.01277 8.57302C5.9825 8.60329 5.97498 8.61081 5.94468 8.6411C5.91444 8.67134 5.94087 8.64492 5.91062 8.67516C5.89549 8.6903 5.89169 8.6941 5.87655 8.70924C5.87655 8.70924 5.74019 8.84559 5.74013 8.84566C5.72494 8.86085 5.72118 8.8646 5.70599 8.87979C5.7003 8.88548 5.69461 8.89117 5.68892 8.89687C5.68323 8.90256 5.67754 8.90825 5.67185 8.91394C5.66616 8.91963 5.66046 8.92532 5.65477 8.93102C5.64908 8.93671 5.64338 8.9424 5.63769 8.9481C5.632 8.95379 5.6263 8.95948 5.62061 8.96518C5.61491 8.97087 5.60922 8.97657 5.60352 8.98226C5.59593 8.98986 5.57694 9.00885 5.56935 9.01644C5.56365 9.02214 5.55795 9.02784 5.55225 9.03354C5.54655 9.03923 5.54086 9.04493 5.53516 9.05063C5.50474 9.08104 5.53137 9.05441 5.50096 9.08483C5.47052 9.11526 5.49719 9.0886 5.46675 9.11904C5.42119 9.1646 5.4781 9.10769 5.43253 9.15326C5.39449 9.19129 5.43634 9.14944 5.3983 9.18748C5.36781 9.21798 5.36032 9.22546 5.32982 9.25597C5.32411 9.26167 5.3184 9.26738 5.3127 9.27309C5.30699 9.2788 5.30128 9.28451 5.29557 9.29022C5.27273 9.31306 5.28415 9.30164 5.2613 9.32448C5.23591 9.34987 5.25243 9.33336 5.22703 9.35875C5.22132 9.36447 5.21561 9.37018 5.20989 9.37589C5.20418 9.38161 5.19847 9.38732 5.19275 9.39303C5.18704 9.39875 5.18133 9.40446 5.17561 9.41018C5.1699 9.41589 5.16418 9.42161 5.15847 9.42732C5.15275 9.43304 5.14704 9.43875 5.14132 9.44447C5.13561 9.45018 5.12989 9.4559 5.12417 9.46161C5.09372 9.49207 5.12033 9.46546 5.08987 9.49592C5.08415 9.50163 5.07844 9.50735 5.07272 9.51307C5.067 9.51879 5.06128 9.52451 5.05556 9.53022C5.04984 9.53594 5.04413 9.54166 5.03841 9.54738C5.03269 9.5531 5.02697 9.55882 5.02125 9.56454C5.01362 9.57216 4.99455 9.59124 4.98693 9.59886C4.9488 9.63698 4.99072 9.59507 4.9526 9.63319C4.94688 9.63891 4.94115 9.64463 4.93543 9.65036C4.92971 9.65608 4.92399 9.6618 4.91826 9.66752C4.79663 9.78916 4.76513 9.82065 4.6434 9.94239C4.63767 9.94812 4.63194 9.95385 4.62621 9.95958C4.62048 9.96531 4.61475 9.97104 4.60902 9.97677C4.58228 10.0035 4.60138 9.98441 4.57464 10.0112C4.52873 10.0571 4.55177 10.034 4.50586 10.0799C4.42932 10.1565 4.44483 10.141 4.36828 10.2175C4.36254 10.2232 4.35681 10.229 4.35107 10.2347C4.34534 10.2404 4.33961 10.2462 4.33387 10.2519C4.31857 10.2672 4.31477 10.271 4.29947 10.2863C4.29335 10.2924 4.27118 10.3146 4.26506 10.3207C4.25933 10.3265 4.25359 10.3322 4.24786 10.3379C4.24213 10.3437 4.23639 10.3494 4.23066 10.3551C4.22492 10.3609 4.21919 10.3666 4.21345 10.3723C4.20772 10.3781 4.20198 10.3838 4.19625 10.3895C4.19051 10.3953 4.18478 10.401 4.17904 10.4067C4.17331 10.4125 4.16757 10.4182 4.16184 10.4239C4.1006 10.4852 4.15426 10.4315 4.09302 10.4928C4.0122 10.5736 3.89855 10.6872 3.81775 10.768C3.81202 10.7738 3.80628 10.7795 3.80055 10.7852C3.79481 10.791 3.78908 10.7967 3.78335 10.8024C3.77761 10.8082 3.77188 10.8139 3.76615 10.8196C3.76041 10.8254 3.75468 10.8311 3.74895 10.8368C3.74321 10.8426 3.73748 10.8483 3.73175 10.854C3.72601 10.8598 3.72028 10.8655 3.71455 10.8712C3.69923 10.8866 3.69546 10.8903 3.68015 10.9056C3.67442 10.9114 3.66868 10.9171 3.66295 10.9228C3.65722 10.9286 3.65149 10.9343 3.64575 10.94C3.64002 10.9458 3.63429 10.9515 3.62856 10.9572C3.62283 10.963 3.61709 10.9687 3.61136 10.9744C3.60563 10.9802 3.5999 10.9859 3.59417 10.9916C3.58844 10.9974 3.58271 11.0031 3.57697 11.0088C3.57124 11.0145 3.56551 11.0203 3.55978 11.026C3.55405 11.0317 3.54832 11.0375 3.54259 11.0432C3.52729 11.0585 3.48913 11.0967 3.47383 11.112C3.4681 11.1177 3.46237 11.1234 3.45664 11.1291C3.45091 11.1349 3.44518 11.1406 3.43946 11.1463C3.40888 11.1769 3.43566 11.1501 3.40509 11.1807C3.39936 11.1864 3.39363 11.1922 3.3879 11.1979C3.38218 11.2036 3.37645 11.2093 3.37072 11.2151C3.34322 11.2426 3.36386 11.2219 3.33636 11.2494C3.33063 11.2552 3.32491 11.2609 3.31918 11.2666C3.31346 11.2723 3.30773 11.2781 3.30201 11.2838C3.29628 11.2895 3.29055 11.2952 3.28483 11.301C3.2791 11.3067 3.27338 11.3124 3.26765 11.3181C3.23725 11.3485 3.16068 11.4251 3.13031 11.4555C3.12459 11.4612 3.11887 11.4669 3.11315 11.4726C3.10743 11.4784 3.10171 11.4841 3.09599 11.4898C3.09027 11.4955 3.08455 11.5012 3.07883 11.507C3.07311 11.5127 3.06739 11.5184 3.06168 11.5241C3.05596 11.5298 3.05024 11.5355 3.04452 11.5413C3.0388 11.547 3.03309 11.5527 3.02737 11.5584C2.98926 11.5965 3.03118 11.5546 2.99307 11.5927C2.98735 11.5984 2.98164 11.6042 2.97592 11.6099C2.97021 11.6156 2.96449 11.6213 2.95878 11.627C2.92831 11.6575 2.95495 11.6308 2.92449 11.6613C2.91878 11.667 2.91306 11.6727 2.90735 11.6784C2.90164 11.6841 2.89593 11.6899 2.89021 11.6956C2.8845 11.7013 2.87879 11.707 2.87308 11.7127C2.86737 11.7184 2.86166 11.7241 2.85594 11.7298C2.81025 11.7755 2.83312 11.7527 2.78743 11.7984C2.71744 11.8684 2.78893 11.7969 2.71895 11.8668C2.69872 11.8871 2.60228 11.9835 2.58211 12.0037C2.57641 12.0094 2.57071 12.0151 2.56501 12.0208C2.55931 12.0265 2.55362 12.0322 2.54792 12.0379C2.54032 12.0455 2.52134 12.0644 2.51374 12.072C2.49857 12.0872 2.46058 12.1252 2.44542 12.1404C2.39989 12.1859 2.45681 12.129 2.41128 12.1745C2.38091 12.2049 2.40751 12.1783 2.37715 12.2086C2.37146 12.2143 2.36577 12.22 2.36009 12.2257C2.3544 12.2314 2.34871 12.2371 2.34303 12.2428C2.33734 12.2484 2.33166 12.2541 2.32597 12.2598C2.32029 12.2655 2.3146 12.2712 2.30892 12.2769C2.2938 12.292 2.28994 12.2958 2.27482 12.311C2.26914 12.3166 2.26346 12.3223 2.25778 12.328C2.2521 12.3337 2.24642 12.3394 2.24074 12.345C2.22561 12.3602 2.22179 12.364 2.20667 12.3791C2.20099 12.3848 2.19531 12.3905 2.18963 12.3962C2.18396 12.4018 2.17828 12.4075 2.17261 12.4132C2.15749 12.4283 2.15367 12.4321 2.13856 12.4472C2.12494 12.4608 2.11814 12.4676 2.10453 12.4813C2.09886 12.4869 2.09319 12.4926 2.08752 12.4983C2.08185 12.5039 2.07618 12.5096 2.07051 12.5153C2.0277 12.5581 2.07931 12.5065 2.0365 12.5493C2.02741 12.5584 1.97761 12.6082 1.96853 12.6173C1.95842 12.6274 1.91071 12.6751 1.90062 12.6852C1.89496 12.6908 1.88931 12.6965 1.88365 12.7021C1.87799 12.7078 1.87234 12.7134 1.86669 12.7191C1.84731 12.7385 1.85213 12.7337 1.83277 12.753C1.79255 12.7932 1.80517 12.7806 1.76497 12.8208C1.72581 12.86 1.73639 12.8494 1.69725 12.8885C1.68223 12.9036 1.64458 12.9412 1.62958 12.9562C1.62395 12.9618 1.61831 12.9675 1.61268 12.9731C1.60704 12.9787 1.60141 12.9844 1.59578 12.99C1.59014 12.9956 1.58451 13.0013 1.57888 13.0069C1.57325 13.0125 1.56762 13.0182 1.56199 13.0238C1.55072 13.0351 1.53948 13.0463 1.52821 13.0576C1.51885 13.0669 1.50382 13.082 1.49446 13.0913C1.48446 13.1013 1.47071 13.1151 1.46072 13.1251C1.40332 13.1825 1.4844 13.1014 1.427 13.1588C1.42139 13.1644 1.41577 13.17 1.41015 13.1756C1.40453 13.1813 1.39892 13.1869 1.3933 13.1925C1.38769 13.1981 1.38207 13.2037 1.37646 13.2093C1.37084 13.2149 1.36523 13.2206 1.35962 13.2262C1.35401 13.2318 1.3484 13.2374 1.34279 13.243C1.33717 13.2486 1.33156 13.2542 1.32596 13.2598C1.32035 13.2654 1.31474 13.271 1.30913 13.2767C1.30352 13.2823 1.29792 13.2879 1.29231 13.2935C1.28232 13.3035 1.23504 13.3507 1.22508 13.3607C1.15257 13.4332 1.2304 13.3554 1.15792 13.4279C1.10574 13.48 1.14301 13.4428 1.09085 13.4949C1.08584 13.4999 1.02883 13.557 1.02386 13.5619C0.98414 13.6016 1.0301 13.5557 0.99039 13.5954C0.975525 13.6103 0.971805 13.614 0.956947 13.6288C0.912439 13.6733 0.86778 13.718 0.823389 13.7624C0.785686 13.8001 0.727771 13.858 0.69019 13.8956C0.684648 13.9011 0.679106 13.9067 0.673566 13.9122C0.668026 13.9178 0.662486 13.9233 0.656948 13.9288C0.651409 13.9344 0.645872 13.9399 0.640336 13.9455C0.634799 13.951 0.629264 13.9565 0.623729 13.9621C0.618195 13.9676 0.612662 13.9731 0.607129 13.9787C0.601597 13.9842 0.596065 13.9897 0.590535 13.9953C0.585004 14.0008 0.579475 14.0063 0.573946 14.0118C0.568418 14.0174 0.562891 14.0229 0.557364 14.0284C0.463294 14.1225 0.518865 14.0669 0.424927 14.1609C0.419417 14.1664 0.413908 14.1719 0.4084 14.1774C0.402892 14.1829 0.397386 14.1884 0.39188 14.1939C0.386374 14.1994 0.38087 14.2049 0.375366 14.2104C0.369863 14.2159 0.36436 14.2214 0.358859 14.2269C0.343081 14.2427 0.308637 14.2772 0.292893 14.2929L1.70711 15.7071Z" fill="black"/>
</g>
<defs>
<clipPath id="clip0_114_10">
<rect width="16" height="16" fill="white"/>
</clipPath>
</defs>
</svg>
