<svg width="16" height="16" viewBox="0 0 16 16" fill="none" xmlns="http://www.w3.org/2000/svg">
<path d="M1.14292 9.28487L12.5715 9.28487L8.81149 13.0449C8.70437 13.1511 8.61935 13.2775 8.56133 13.4168C8.50331 13.556 8.47343 13.7054 8.47343 13.8563C8.47343 14.0072 8.50331 14.1565 8.56133 14.2958C8.61935 14.4351 8.70437 14.5615 8.81149 14.6677C9.02562 14.8806 9.31528 15.0001 9.6172 15.0001C9.91913 15.0001 10.2088 14.8806 10.4229 14.6677L15.3258 9.75344C15.755 9.32675 15.9975 8.74724 16.0001 8.14201C15.9945 7.54075 15.7522 6.96589 15.3258 6.54201L10.4229 1.62772C10.3164 1.52192 10.19 1.43813 10.0511 1.38116C9.91213 1.32418 9.76333 1.29513 9.61316 1.29566C9.463 1.29619 9.31441 1.32629 9.17587 1.38425C9.03734 1.44221 8.91158 1.52688 8.80577 1.63344C8.69997 1.74 8.61618 1.86635 8.55921 2.00529C8.50223 2.14423 8.47318 2.29303 8.47371 2.44319C8.47424 2.59336 8.50434 2.74195 8.5623 2.88048C8.62026 3.01901 8.70493 3.14477 8.81149 3.25058L12.5715 6.99915L1.14292 6.99915C0.839811 6.99915 0.54912 7.11956 0.334793 7.33389C0.120465 7.54822 5.84126e-05 7.83891 5.84126e-05 8.14201C5.84126e-05 8.44512 0.120465 8.73581 0.334793 8.95013C0.54912 9.16446 0.839811 9.28487 1.14292 9.28487Z" fill="black"/>
</svg>
