<svg width="16" height="16" viewBox="0 0 16 16" fill="none" xmlns="http://www.w3.org/2000/svg">
<g clip-path="url(#clip0_114_4)">
<path d="M0.292893 14.2929C-0.097631 14.6834 -0.097631 15.3166 0.292893 15.7071C0.683418 16.0976 1.31658 16.0976 1.70711 15.7071L0.292893 14.2929ZM16 1C16 0.447715 15.5523 5.96046e-08 15 5.96046e-08L6 5.96046e-08C5.44772 5.96046e-08 5 0.447715 5 1C5 1.55228 5.44772 2 6 2L14 2L14 10C14 10.5523 14.4477 11 15 11C15.5523 11 16 10.5523 16 10V1ZM1.70711 15.7071C1.78818 15.626 1.74859 15.6656 1.8298 15.5844C1.84988 15.5643 1.93266 15.4816 1.95286 15.4614C1.97688 15.4373 1.99048 15.4237 2.01453 15.3997C2.02482 15.3894 2.03511 15.3791 2.0454 15.3688C2.05569 15.3585 2.06599 15.3482 2.07629 15.3379C2.11452 15.2997 2.09987 15.3143 2.13813 15.2761C2.17691 15.2373 2.16125 15.253 2.20006 15.2142C2.21039 15.2038 2.22072 15.1935 2.23105 15.1832C2.24139 15.1728 2.25173 15.1625 2.26207 15.1521C2.27241 15.1418 2.28276 15.1315 2.2931 15.1211C2.30345 15.1108 2.3138 15.1004 2.32416 15.0901C2.33451 15.0797 2.34487 15.0693 2.35524 15.059C2.3656 15.0486 2.37596 15.0383 2.38633 15.0279C2.3967 15.0175 2.40707 15.0071 2.41745 14.9968C2.42782 14.9864 2.4382 14.976 2.44858 14.9656C2.48889 14.9253 2.65762 14.7566 2.69832 14.7159C2.86555 14.5487 3.03244 14.3818 3.201 14.2132C3.20107 14.2131 3.32712 14.0871 3.32726 14.087C3.33779 14.0764 3.34832 14.0659 3.35885 14.0554C3.36939 14.0448 3.37992 14.0343 3.39046 14.0238C3.401 14.0132 3.41154 14.0027 3.42208 13.9921C3.43263 13.9816 3.44317 13.971 3.45372 13.9605C3.50952 13.9047 3.46121 13.953 3.51702 13.8972C3.52758 13.8866 3.53814 13.8761 3.54869 13.8655C3.55925 13.855 3.56981 13.8444 3.58038 13.8338C3.66108 13.7531 3.62645 13.7878 3.70721 13.707C3.74492 13.6693 3.79645 13.6178 3.83421 13.58C3.86234 13.5519 3.86963 13.5446 3.89777 13.5164C3.90837 13.5058 3.91896 13.4953 3.92956 13.4847C3.94016 13.4741 3.95076 13.4635 3.96136 13.4528C3.97197 13.4422 3.98257 13.4316 3.99317 13.421C4.00378 13.4104 4.01438 13.3998 4.02499 13.3892C4.0356 13.3786 4.04621 13.368 4.05682 13.3574C4.06743 13.3468 4.07804 13.3362 4.08865 13.3256C4.09927 13.3149 4.10988 13.3043 4.1205 13.2937C4.13111 13.2831 4.14173 13.2725 4.15235 13.2619C4.20892 13.2053 4.15948 13.2547 4.21607 13.1981C4.24439 13.1698 4.31524 13.099 4.34359 13.0706C4.35422 13.06 4.36485 13.0494 4.37549 13.0387C4.38612 13.0281 4.39675 13.0175 4.40739 13.0068C4.41802 12.9962 4.42866 12.9856 4.4393 12.9749C4.44993 12.9643 4.46057 12.9536 4.47121 12.943C4.48185 12.9324 4.49249 12.9217 4.50313 12.9111C4.51377 12.9004 4.52441 12.8898 4.53505 12.8792C4.54569 12.8685 4.55633 12.8579 4.56698 12.8472C4.57762 12.8366 4.58826 12.8259 4.59891 12.8153C4.6842 12.73 4.64137 12.7728 4.72668 12.6875C4.81202 12.6022 4.76914 12.6451 4.8545 12.5597C4.86515 12.5491 4.87581 12.5384 4.88646 12.5278C4.89712 12.5171 4.90777 12.5064 4.91843 12.4958C4.92411 12.4901 4.97668 12.4375 4.98236 12.4319C5.07313 12.3411 5.14737 12.2668 5.23815 12.1761C5.30652 12.1077 5.29769 12.1165 5.36605 12.0482C5.38504 12.0292 5.41101 12.0032 5.43 11.9842C5.44066 11.9736 5.45131 11.9629 5.46197 11.9522C5.47263 11.9416 5.48328 11.9309 5.49394 11.9203C5.5319 11.8823 5.58384 11.8304 5.62179 11.7924C5.6787 11.7355 5.6288 11.7854 5.68571 11.7285C5.69636 11.7179 5.70701 11.7072 5.71766 11.6966C5.72831 11.6859 5.73896 11.6753 5.74961 11.6646C5.76026 11.654 5.7709 11.6433 5.78155 11.6327C5.7922 11.622 5.80285 11.6114 5.81349 11.6007C5.82414 11.5901 5.83478 11.5794 5.84543 11.5688C5.85607 11.5581 5.86672 11.5475 5.87736 11.5369C5.88801 11.5262 5.89865 11.5156 5.90929 11.5049C5.91993 11.4943 5.93057 11.4836 5.94121 11.473C5.95185 11.4624 5.96249 11.4517 5.97313 11.4411C5.98377 11.4304 5.99441 11.4198 6.00505 11.4092C6.03343 11.3808 6.10429 11.3099 6.13265 11.2816C6.14328 11.2709 6.15391 11.2603 6.16453 11.2497C6.17516 11.2391 6.18579 11.2284 6.19641 11.2178C6.20704 11.2072 6.21766 11.1966 6.22828 11.1859C6.23891 11.1753 6.24953 11.1647 6.26015 11.1541C6.28843 11.1258 6.29559 11.1186 6.32386 11.0904C6.33447 11.0797 6.34509 11.0691 6.3557 11.0585C6.36632 11.0479 6.37693 11.0373 6.38754 11.0267C6.41584 10.9984 6.42289 10.9913 6.45119 10.963C6.46179 10.9524 6.47239 10.9418 6.483 10.9312C6.4936 10.9206 6.5042 10.91 6.5148 10.8994C6.5526 10.8616 6.7313 10.6829 6.76889 10.6453C6.77946 10.6347 6.79004 10.6242 6.80061 10.6136C6.81118 10.603 6.82175 10.5925 6.83231 10.5819C6.84288 10.5713 6.85344 10.5608 6.86401 10.5502C6.87457 10.5396 6.88513 10.5291 6.89569 10.5185C6.95214 10.4621 6.96593 10.4483 7.02231 10.3919C7.13345 10.2808 7.16408 10.2501 7.27494 10.1393C7.3029 10.1113 7.31003 10.1042 7.33797 10.0762C7.34847 10.0657 7.35896 10.0553 7.36946 10.0448C7.37995 10.0343 7.39044 10.0238 7.40093 10.0133C7.41142 10.0028 7.42191 9.9923 7.43239 9.98182C7.44288 9.97134 7.45336 9.96085 7.46384 9.95037C7.47432 9.9399 7.4848 9.92942 7.49527 9.91894C7.50574 9.90847 7.51622 9.898 7.52668 9.88753C7.58274 9.83147 7.72172 9.6925 7.77742 9.63679C7.78784 9.62637 7.79827 9.61595 7.80868 9.60553C7.8191 9.59511 7.82952 9.58469 7.83993 9.57428C7.85035 9.56387 7.86076 9.55346 7.87116 9.54305C7.88157 9.53264 7.89197 9.52224 7.90238 9.51184C7.91278 9.50144 7.92317 9.49104 7.93357 9.48064C7.94396 9.47025 7.95436 9.45986 7.96474 9.44947C7.97513 9.43908 7.98552 9.4287 7.9959 9.41831C8.00628 9.40793 8.01666 9.39755 8.02704 9.38718C8.03741 9.3768 8.04779 9.36643 8.05816 9.35606C8.06853 9.34569 8.07889 9.33532 8.08925 9.32496C8.09962 9.3146 8.10998 9.30424 8.12033 9.29388C8.13069 9.28352 8.14104 9.27317 8.15139 9.26282C8.16174 9.25247 8.17209 9.24212 8.18243 9.23178C8.19278 9.22144 8.20312 9.2111 8.21345 9.20076C8.22379 9.19043 8.23412 9.18009 8.24445 9.16976C8.25478 9.15943 8.26511 9.14911 8.27543 9.13878C8.28575 9.12846 8.29607 9.11814 8.30639 9.10783C8.3167 9.09751 8.32701 9.0872 8.33732 9.07689C8.34763 9.06658 8.35793 9.05628 8.36824 9.04598C8.37854 9.03568 8.38884 9.02538 8.39913 9.01508C8.40942 9.00479 8.41971 8.9945 8.43 8.98421C8.44029 8.97393 8.45057 8.96364 8.46085 8.95336C8.47113 8.94308 8.4814 8.93281 8.49168 8.92254C8.50195 8.91227 8.51222 8.902 8.52248 8.89173C8.53275 8.88147 8.54301 8.87121 8.55326 8.86095C8.56352 8.85069 8.57377 8.84044 8.58402 8.83019C8.59427 8.81994 8.60452 8.8097 8.61476 8.79946C8.625 8.78921 8.63524 8.77898 8.64547 8.76874C8.6557 8.75851 8.66593 8.74828 8.67616 8.73805C8.68639 8.72783 8.69661 8.71761 8.70682 8.70739C8.71704 8.69717 8.72726 8.68696 8.73747 8.67675C8.74768 8.66654 8.75788 8.65633 8.76808 8.64613C8.77828 8.63593 8.78848 8.62573 8.79868 8.61554C8.80887 8.60534 8.81906 8.59515 8.82924 8.58497C8.83943 8.57478 8.84961 8.5646 8.85979 8.55443C8.86996 8.54425 8.88014 8.53408 8.89031 8.52391C8.90047 8.51374 8.91064 8.50357 8.9208 8.49341C8.93096 8.48325 8.94112 8.4731 8.95127 8.46295C8.96142 8.4528 8.97157 8.44265 8.98171 8.4325C8.99185 8.42236 9.00199 8.41222 9.01212 8.40209C9.02226 8.39195 9.03239 8.38182 9.04251 8.3717C9.05264 8.36157 9.06276 8.35145 9.07288 8.34134C9.083 8.33122 9.09311 8.32111 9.10322 8.311C9.11332 8.30089 9.12343 8.29079 9.13353 8.28069C9.14362 8.27059 9.15372 8.26049 9.16381 8.2504C9.1739 8.24031 9.18398 8.23023 9.19406 8.22015C9.20415 8.21007 9.21422 8.19999 9.22429 8.18992C9.23437 8.17985 9.24443 8.16978 9.25449 8.15972C9.26456 8.14966 9.27461 8.1396 9.28467 8.12955C9.29472 8.11949 9.30477 8.10944 9.31481 8.0994C9.32486 8.08936 9.3349 8.07932 9.34493 8.06928C9.35496 8.05925 9.36499 8.04922 9.37502 8.0392C9.38504 8.02917 9.39506 8.01915 9.40508 8.00914C9.41509 7.99912 9.4251 7.98911 9.43511 7.97911C9.44511 7.9691 9.45511 7.9591 9.46511 7.9491C9.4751 7.93911 9.4851 7.92912 9.49508 7.91913C9.50507 7.90915 9.51505 7.89917 9.52502 7.88919C9.535 7.87921 9.54497 7.86924 9.55494 7.85928C9.5649 7.84931 9.57486 7.83935 9.58482 7.8294C9.59477 7.81944 9.60473 7.80949 9.61467 7.79954C9.62462 7.7896 9.63456 7.77966 9.64449 7.76972C9.65443 7.75979 9.66436 7.74985 9.67428 7.73993C9.68421 7.73 9.69413 7.72008 9.70404 7.71017C9.71396 7.70025 9.72387 7.69034 9.73377 7.68044C9.74368 7.67054 9.75358 7.66064 9.76347 7.65074C9.77337 7.64085 9.78325 7.63096 9.79314 7.62108C9.80302 7.61119 9.8129 7.60131 9.82277 7.59144C9.83264 7.58157 9.84251 7.5717 9.85237 7.56184C9.8787 7.53551 9.8852 7.52901 9.91148 7.50273C9.92132 7.49289 9.93116 7.48306 9.94099 7.47323C9.95082 7.4634 9.96064 7.45357 9.97046 7.44375C9.97921 7.43501 10.0206 7.39361 10.0293 7.38491C10.0391 7.37511 10.0489 7.36532 10.0587 7.35553C10.0685 7.34575 10.0782 7.33597 10.088 7.3262C10.14 7.27419 10.1532 7.26101 10.205 7.20918C10.3085 7.10568 10.3346 7.07958 10.4374 6.97684C10.4888 6.92537 10.5014 6.91281 10.5527 6.86154C10.5623 6.85195 10.5718 6.84238 10.5814 6.8328C10.591 6.82323 10.6005 6.81367 10.6101 6.80411C10.6197 6.79455 10.6292 6.785 10.6388 6.77545C10.6483 6.76591 10.6578 6.75637 10.6674 6.74683C10.6769 6.7373 10.6864 6.72777 10.696 6.71825C10.7055 6.70873 10.715 6.69922 10.7245 6.68971C10.734 6.6802 10.7435 6.6707 10.753 6.66121C10.7625 6.65171 10.772 6.64222 10.7815 6.63274C10.791 6.62326 10.8004 6.61379 10.8099 6.60432C10.8194 6.59485 10.8288 6.58539 10.8383 6.57593C10.8477 6.56648 10.8572 6.55703 10.8666 6.54758C10.8761 6.53814 10.8855 6.52871 10.8949 6.51928C10.9951 6.41911 11.0206 6.39357 11.1199 6.29428C11.1697 6.2445 11.126 6.28818 11.1758 6.23845C11.1851 6.22916 11.1943 6.21987 11.2036 6.21059C11.2129 6.20131 11.2222 6.19204 11.2314 6.18278C11.2407 6.17352 11.25 6.16426 11.2592 6.15501C11.2685 6.14576 11.2777 6.13652 11.2869 6.12728C11.2962 6.11805 11.3054 6.10882 11.3146 6.0996C11.3238 6.09038 11.333 6.08117 11.3423 6.07196C11.416 5.99824 11.3237 6.09047 11.3974 6.01681C11.4137 6.00049 11.4361 5.97809 11.4524 5.96183C11.4768 5.93743 11.4828 5.93138 11.5072 5.90704C11.5163 5.89792 11.5254 5.88881 11.5345 5.87971C11.5436 5.8706 11.5527 5.86151 11.5618 5.85242C11.5709 5.84333 11.58 5.83425 11.589 5.82518C11.5981 5.81611 11.6072 5.80704 11.6162 5.79798C11.6253 5.78892 11.6343 5.77987 11.6434 5.77083C11.6524 5.76179 11.6615 5.75275 11.6705 5.74373C11.6795 5.7347 11.6885 5.72568 11.6975 5.71667C11.7066 5.70766 11.7156 5.69865 11.7246 5.68966C11.7336 5.68066 11.7425 5.67167 11.7515 5.66269C11.7605 5.65371 11.7695 5.64474 11.7784 5.63577C11.7874 5.62681 11.7964 5.61785 11.8053 5.6089C11.8143 5.59995 11.8232 5.59101 11.8321 5.58208C11.856 5.55821 11.8618 5.55237 11.8856 5.52857C11.8945 5.51967 11.9034 5.51077 11.9123 5.50189C11.9212 5.493 11.9301 5.48412 11.939 5.47525C11.9705 5.44372 11.9606 5.45361 11.9921 5.42213C12.0009 5.41329 12.0097 5.40446 12.0186 5.39564C12.0274 5.38682 12.0362 5.37801 12.045 5.3692C12.0538 5.3604 12.0626 5.3516 12.0714 5.34281C12.0802 5.33402 12.089 5.32524 12.0977 5.31647C12.1445 5.26974 12.1036 5.3106 12.1503 5.26394C12.159 5.2552 12.1677 5.24647 12.1765 5.23775C12.1852 5.22902 12.1939 5.22031 12.2026 5.21161C12.3259 5.08833 12.2877 5.12649 12.4099 5.00431C12.4647 4.94955 12.4065 5.00769 12.4612 4.953C12.4697 4.94447 12.4783 4.93594 12.4868 4.92743C12.4953 4.91891 12.5038 4.9104 12.5123 4.9019C12.5293 4.88491 12.5463 4.86794 12.5632 4.85102C12.5858 4.82845 12.5914 4.82284 12.6139 4.80035C12.7036 4.71066 12.7259 4.68836 12.8144 4.59984C12.932 4.48222 13.0919 4.32233 13.2046 4.20961C13.2174 4.19683 13.2396 4.17457 13.2523 4.16187C13.2603 4.15394 13.2682 4.14601 13.2761 4.1381C13.284 4.13018 13.2919 4.12227 13.2998 4.11438C13.3833 4.03096 13.311 4.10321 13.3941 4.02011C13.4564 3.95785 13.3787 4.03552 13.4409 3.97334C13.4668 3.94744 13.4616 3.95263 13.4874 3.92682C13.5283 3.88593 13.5392 3.87506 13.5797 3.83451C13.5914 3.82284 13.6139 3.80031 13.6255 3.78873C13.6331 3.78112 13.6407 3.77352 13.6483 3.76593C13.6559 3.75835 13.6634 3.75077 13.671 3.7432C13.7514 3.66282 13.6813 3.73295 13.7613 3.65291C13.8409 3.57333 13.7713 3.64288 13.8506 3.56365C13.858 3.55625 13.8653 3.54887 13.8727 3.54149C13.8801 3.53412 13.8875 3.52676 13.8948 3.51941C13.9144 3.4998 13.9193 3.49494 13.9388 3.47543C14.049 3.36522 14.0033 3.41095 14.112 3.30217C14.1192 3.29504 14.1263 3.28792 14.1334 3.28082C14.1405 3.27371 14.1476 3.26662 14.1547 3.25953C14.1641 3.25007 14.1877 3.22654 14.197 3.21716C14.2041 3.21013 14.2111 3.2031 14.2181 3.19608C14.2251 3.18907 14.2322 3.18206 14.2391 3.17507C14.2604 3.1538 14.2598 3.15444 14.281 3.13325C14.2828 3.1314 14.4451 2.96914 14.4454 2.96879C14.4809 2.93327 14.4908 2.92339 14.526 2.88825C14.5326 2.88159 14.5393 2.87494 14.5459 2.8683C14.5526 2.86166 14.5592 2.85504 14.5658 2.84842C14.5724 2.84181 14.579 2.8352 14.5856 2.82861C14.5922 2.82202 14.5988 2.81544 14.6053 2.80888C14.6193 2.79488 14.6307 2.78353 14.6446 2.76963C14.6511 2.76311 14.6576 2.7566 14.6641 2.75011C14.6706 2.74362 14.6771 2.73714 14.6835 2.73067C14.7356 2.67865 14.709 2.70526 14.7606 2.65364C14.7669 2.64727 14.7733 2.64091 14.7796 2.63457C14.786 2.62823 14.7923 2.62189 14.7986 2.61557C14.805 2.60925 14.8113 2.60295 14.8176 2.59665C14.8239 2.59036 14.8301 2.58408 14.8364 2.57781C14.8688 2.54538 14.8415 2.57267 14.8739 2.54035C14.8801 2.53413 14.8863 2.52792 14.8925 2.52173C14.8987 2.51553 14.9049 2.50935 14.911 2.50319C14.9172 2.49702 14.9234 2.49086 14.9295 2.48472C14.9356 2.47858 14.9418 2.47245 14.9479 2.46633C14.954 2.46022 14.9601 2.45411 14.9662 2.44802C14.9723 2.44193 14.9784 2.43585 14.9844 2.42979C15.0158 2.39838 14.9894 2.42485 15.0207 2.39355C15.0267 2.38754 15.0327 2.38154 15.0387 2.37555C15.0447 2.36956 15.0506 2.36359 15.0566 2.35762C15.0773 2.33695 15.1782 2.23605 15.1971 2.21707C15.2126 2.20162 15.3189 2.09535 15.3326 2.08163C15.3576 2.05657 15.4395 1.97471 15.4628 1.95141C15.5335 1.88068 15.4556 1.95859 15.5259 1.8883C15.5684 1.84579 15.5456 1.86859 15.5877 1.82653C15.5928 1.82144 15.5978 1.81637 15.6029 1.81131C15.608 1.80624 15.613 1.8012 15.6181 1.79616C15.6231 1.79113 15.6281 1.78611 15.6331 1.7811C15.6381 1.7761 15.6431 1.77111 15.6481 1.76613C15.7028 1.71142 15.6529 1.76136 15.7071 1.70711L14.2929 0.292893C14.283 0.302761 14.2735 0.31225 14.2636 0.322233C14.2586 0.327152 14.2537 0.332086 14.2488 0.337033C14.2438 0.341981 14.2388 0.346943 14.2339 0.351919C14.1972 0.388575 14.2106 0.37521 14.1735 0.412321C14.1717 0.414072 14.1446 0.44117 14.1428 0.443034C14.1308 0.455003 14.1238 0.462005 14.1117 0.474086C14.0767 0.509106 14.0841 0.501731 14.0486 0.537198C14.008 0.577769 13.8305 0.755315 13.7829 0.802854C13.7215 0.86429 13.7055 0.880289 13.6424 0.943411C13.5995 0.986305 13.6135 0.972265 13.5702 1.01557C13.5614 1.02439 13.5426 1.0432 13.5337 1.05212C13.4947 1.09109 13.5359 1.0499 13.4968 1.08897C13.4529 1.13287 13.2414 1.34439 13.1911 1.39466C13.1877 1.39812 13.1551 1.43065 13.1516 1.43421C13.145 1.44082 13.1383 1.44745 13.1317 1.45409C13.1251 1.46073 13.1184 1.46738 13.1117 1.47404C13.1051 1.4807 13.0984 1.48738 13.0917 1.49407C13.085 1.50075 13.0783 1.50745 13.0716 1.51416C13.0649 1.52087 13.0582 1.5276 13.0515 1.53433C13.0447 1.54107 13.038 1.54781 13.0312 1.55457C13.0245 1.56133 13.0177 1.5681 13.0109 1.57488C13.0041 1.58167 12.9973 1.58846 12.9905 1.59527C12.9324 1.65338 13.0077 1.57804 12.9495 1.63624C12.9343 1.65148 12.9236 1.66218 12.9083 1.6775C12.9044 1.68141 12.8707 1.71504 12.8667 1.71904C12.8495 1.73624 12.8422 1.74356 12.8249 1.76086C12.7752 1.81061 12.8327 1.75311 12.7828 1.80295C12.7409 1.84489 12.7401 1.84566 12.6978 1.88796C12.6406 1.94516 12.6693 1.91649 12.6117 1.97405C12.5907 1.99508 12.5894 1.99638 12.5683 2.0175C12.561 2.02476 12.5537 2.03204 12.5465 2.03932C12.5392 2.04661 12.5319 2.05391 12.5246 2.06121C12.4617 2.12404 12.4995 2.08626 12.4364 2.14943C12.4362 2.14956 12.3921 2.19372 12.3919 2.19394C12.3522 2.2336 12.3868 2.19894 12.3471 2.2387C12.3396 2.24618 12.3321 2.25367 12.3246 2.26117C12.3171 2.26868 12.3096 2.27619 12.3021 2.28371C12.2945 2.29124 12.287 2.29877 12.2795 2.30632C12.2719 2.31386 12.2644 2.32142 12.2568 2.32899C12.1757 2.41009 12.2469 2.33886 12.1655 2.42029C12.1247 2.46106 12.022 2.56382 11.9799 2.6059C11.9465 2.63932 11.9664 2.61941 11.9329 2.65291C11.925 2.66077 11.9172 2.66863 11.9093 2.67651C11.9014 2.68438 11.8935 2.69227 11.8856 2.70017C11.8222 2.76361 11.8542 2.73163 11.7904 2.79539C11.7394 2.84634 11.6493 2.93648 11.5971 2.98867C11.5395 3.04633 11.459 3.12676 11.4002 3.18562C11.3919 3.1939 11.3836 3.20219 11.3753 3.21049C11.367 3.21879 11.3587 3.2271 11.3504 3.23542C11.3356 3.25019 11.3152 3.2706 11.3003 3.28544C11.292 3.29379 11.2836 3.30216 11.2753 3.31053C11.2669 3.3189 11.2585 3.32729 11.2501 3.33568C11.2417 3.34407 11.2333 3.35247 11.2249 3.36088C11.2165 3.36929 11.2081 3.37771 11.1997 3.38613C11.1912 3.39456 11.1828 3.403 11.1743 3.41144C11.1659 3.41989 11.1574 3.42834 11.149 3.4368C11.1405 3.44527 11.132 3.45374 11.1236 3.46222C11.1151 3.4707 11.1066 3.47919 11.0981 3.48769C11.0618 3.52395 11.0322 3.55355 10.9957 3.59009C10.9195 3.66626 10.8657 3.72014 10.7884 3.79739C10.6955 3.89033 10.6719 3.91392 10.5779 4.00792C10.5308 4.05503 10.5188 4.06699 10.4714 4.11436C10.4625 4.12326 10.4536 4.13217 10.4447 4.14109C10.4358 4.15 10.4269 4.15893 10.4179 4.16786C10.409 4.1768 10.4 4.18574 10.3911 4.19469C10.3821 4.20364 10.3732 4.21259 10.3642 4.22156C10.3164 4.26943 10.3583 4.22751 10.3103 4.27544C10.2623 4.32349 10.3044 4.2814 10.2563 4.32951C10.2442 4.34158 10.2141 4.37164 10.202 4.38377C10.193 4.39283 10.1839 4.40189 10.1748 4.41096C10.1657 4.42004 10.1567 4.42912 10.1476 4.43821C10.1385 4.44729 10.1294 4.45639 10.1203 4.46549C10.1112 4.4746 10.1021 4.48371 10.093 4.49282C10.032 4.55377 10.0992 4.48661 10.0382 4.54762C9.98935 4.59643 10.0321 4.55372 9.98319 4.6026C9.97401 4.61177 9.96483 4.62096 9.95564 4.63015C9.94645 4.63934 9.93725 4.64854 9.92804 4.65775C9.91883 4.66695 9.90962 4.67617 9.9004 4.68539C9.89118 4.69461 9.88195 4.70384 9.87272 4.71307C9.86348 4.72231 9.85424 4.73155 9.84499 4.7408C9.83574 4.75005 9.82648 4.7593 9.81722 4.76857C9.76776 4.81802 9.81106 4.77472 9.76155 4.82423C9.75226 4.83353 9.74296 4.84282 9.73366 4.85213C9.72435 4.86144 9.71504 4.87075 9.70572 4.88007C9.60649 4.9793 9.35581 5.22997 9.25317 5.33262C9.24363 5.34215 9.23409 5.35169 9.22455 5.36124C9.215 5.37078 9.20545 5.38034 9.19589 5.3899C9.18633 5.39945 9.17677 5.40902 9.1672 5.41859C9.15762 5.42816 9.14805 5.43774 9.13846 5.44732C9.12888 5.45691 9.11929 5.4665 9.10969 5.47609C9.1001 5.48569 9.09049 5.49529 9.08089 5.5049C9.07128 5.51451 9.06166 5.52412 9.05204 5.53374C9.04242 5.54337 9.03279 5.55299 9.02316 5.56263C9.01353 5.57226 9.00389 5.5819 8.99424 5.59154C8.9846 5.60119 8.97495 5.61084 8.96529 5.6205C8.95563 5.63015 8.94597 5.63982 8.9363 5.64949C8.92663 5.65916 8.91696 5.66883 8.90728 5.67851C8.89759 5.68819 8.88791 5.69788 8.87821 5.70757C8.86852 5.71727 8.85882 5.72696 8.84912 5.73667C8.82322 5.76257 8.81677 5.76902 8.79082 5.79497C8.79064 5.79515 8.67417 5.91162 8.6738 5.91198C8.66403 5.92176 8.65425 5.93154 8.64447 5.94132C8.63468 5.95111 8.62489 5.9609 8.61509 5.97069C8.57153 6.01425 8.59985 5.98594 8.55625 6.02954C8.53007 6.05572 8.52349 6.06229 8.49727 6.08852C8.48743 6.09836 8.47758 6.1082 8.46773 6.11806C8.45788 6.12791 8.44802 6.13776 8.43816 6.14763C8.38541 6.20038 8.43172 6.15407 8.37892 6.20686C8.36904 6.21675 8.35915 6.22663 8.34926 6.23653C8.33936 6.24642 8.32946 6.25632 8.31956 6.26623C8.30966 6.27613 8.29975 6.28604 8.28983 6.29596C8.27992 6.30587 8.27 6.31579 8.26007 6.32572C8.25015 6.33564 8.24021 6.34557 8.23028 6.35551C8.22034 6.36544 8.2104 6.37538 8.20046 6.38533C8.19051 6.39527 8.18056 6.40523 8.17061 6.41518C8.16065 6.42514 8.15069 6.4351 8.14072 6.44506C8.13076 6.45503 8.12079 6.465 8.11081 6.47498C8.10083 6.48495 8.09085 6.49493 8.08087 6.50492C8.07088 6.5149 8.06089 6.5249 8.0509 6.53489C8.0409 6.54489 8.0309 6.55489 8.02089 6.56489C8.01089 6.5749 8.00088 6.58491 7.99086 6.59492C7.98085 6.60494 7.97083 6.61496 7.9608 6.62498C7.95078 6.63501 7.94075 6.64504 7.93072 6.65507C7.92068 6.6651 7.91064 6.67514 7.9006 6.68519C7.89056 6.69523 7.88051 6.70528 7.87045 6.71533C7.8604 6.72539 7.85034 6.73544 7.84028 6.74551C7.83022 6.75557 7.82015 6.76564 7.81008 6.77571C7.80001 6.78578 7.78993 6.79585 7.77985 6.80594C7.76977 6.81602 7.75969 6.8261 7.7496 6.83619C7.73951 6.84628 7.72941 6.85638 7.71931 6.86647C7.70921 6.87657 7.69911 6.88668 7.689 6.89678C7.67889 6.90689 7.66878 6.91701 7.65866 6.92712C7.64855 6.93724 7.63843 6.94736 7.6283 6.95749C7.61818 6.96761 7.60805 6.97774 7.59791 6.98788C7.58778 6.99801 7.57764 7.00815 7.5675 7.01829C7.55735 7.02843 7.5472 7.03858 7.53705 7.04873C7.5269 7.05888 7.51675 7.06904 7.50659 7.0792C7.49643 7.08936 7.48626 7.09953 7.47609 7.10969C7.46592 7.11986 7.45575 7.13004 7.44557 7.14021C7.4354 7.15039 7.42522 7.16057 7.41503 7.17076C7.40485 7.18094 7.39466 7.19113 7.38446 7.20132C7.37427 7.21152 7.36407 7.22172 7.35387 7.23192C7.34367 7.24212 7.33346 7.25232 7.32325 7.26253C7.31304 7.27274 7.30283 7.28296 7.29261 7.29318C7.28239 7.30339 7.27217 7.31362 7.26195 7.32384C7.25172 7.33407 7.24149 7.3443 7.23126 7.35453C7.22102 7.36476 7.21079 7.375 7.20054 7.38524C7.1903 7.39548 7.18006 7.40573 7.16981 7.41598C7.15956 7.42623 7.14931 7.43648 7.13905 7.44674C7.12879 7.45699 7.11853 7.46725 7.10827 7.47752C7.098 7.48778 7.08773 7.49805 7.07746 7.50832C7.06719 7.5186 7.05692 7.52887 7.04664 7.53915C7.03636 7.54943 7.02607 7.55971 7.01579 7.57C7.0055 7.58029 6.99521 7.59058 6.98492 7.60087C6.97462 7.61117 6.96432 7.62146 6.95402 7.63176C6.94372 7.64207 6.93342 7.65237 6.92311 7.66268C6.9128 7.67299 6.90249 7.6833 6.89217 7.69361C6.88186 7.70393 6.87154 7.71425 6.86122 7.72457C6.85089 7.73489 6.84057 7.74522 6.83024 7.75555C6.81991 7.76588 6.80957 7.77621 6.79924 7.78655C6.7889 7.79688 6.77856 7.80722 6.76822 7.81757C6.75788 7.82791 6.74753 7.83826 6.73718 7.84861C6.72683 7.85896 6.71648 7.86931 6.70612 7.87967C6.69576 7.89002 6.6854 7.90038 6.67504 7.91075C6.66468 7.92111 6.65431 7.93147 6.64394 7.94184C6.63357 7.95221 6.6232 7.96259 6.61282 7.97296C6.60245 7.98334 6.59207 7.99372 6.58169 8.0041C6.5713 8.01448 6.56092 8.02487 6.55053 8.03526C6.54014 8.04564 6.52975 8.05604 6.51936 8.06643C6.50896 8.07683 6.49856 8.08722 6.48816 8.09763C6.47776 8.10803 6.46736 8.11843 6.45695 8.12884C6.44654 8.13924 6.43613 8.14965 6.42572 8.16007C6.41531 8.17048 6.40489 8.1809 6.39447 8.19132C6.38405 8.20173 6.37363 8.21216 6.36321 8.22258C6.3075 8.27828 6.16853 8.41726 6.11247 8.47332C6.00013 8.58566 5.97339 8.6124 5.86073 8.72506C5.83258 8.7532 5.82582 8.75997 5.79765 8.78814C5.75558 8.8302 5.7766 8.80918 5.73452 8.85127C5.72399 8.8618 5.71346 8.87232 5.70293 8.88286C5.6924 8.89339 5.68187 8.90392 5.67133 8.91445C5.6608 8.92499 5.65026 8.93553 5.63972 8.94607C5.62918 8.95661 5.61864 8.96715 5.6081 8.97769C5.49523 9.09055 5.46778 9.118 5.35468 9.23111C5.3441 9.24168 5.33353 9.25226 5.32295 9.26284C5.31237 9.27341 5.30179 9.28399 5.29121 9.29457C5.28063 9.30515 5.27005 9.31574 5.25947 9.32632C5.24888 9.3369 5.2383 9.34749 5.22771 9.35808C5.19002 9.39576 5.20186 9.38392 5.16417 9.42162C5.16417 9.42162 5.1006 9.48519 5.10059 9.4852C4.9689 9.61689 4.97779 9.608 4.84594 9.73985C4.83531 9.75047 4.82469 9.76109 4.81407 9.77172C4.80345 9.78234 4.79282 9.79296 4.7822 9.80359C4.77157 9.81421 4.76095 9.82484 4.75032 9.83547C4.73969 9.8461 4.72906 9.85672 4.71843 9.86735C4.64755 9.93824 4.66175 9.92404 4.59083 9.99495C4.5802 10.0056 4.56956 10.0162 4.55892 10.0269C4.54828 10.0375 4.53764 10.0481 4.527 10.0588C4.51636 10.0694 4.50572 10.0801 4.49508 10.0907C4.48444 10.1014 4.47379 10.112 4.46315 10.1226C4.43501 10.1508 4.36355 10.2222 4.33539 10.2504C4.31643 10.2694 4.29046 10.2953 4.27149 10.3143C4.22407 10.3617 4.255 10.3308 4.20758 10.3782C4.17941 10.4064 4.17183 10.414 4.14366 10.4421C4.133 10.4528 4.12235 10.4634 4.11169 10.4741C4.10104 10.4847 4.09038 10.4954 4.07972 10.5061C4.02277 10.563 4.0088 10.577 3.95184 10.6339C3.94045 10.6453 3.83534 10.7505 3.82394 10.7618C3.81328 10.7725 3.80262 10.7832 3.79196 10.7938C3.78131 10.8045 3.77065 10.8151 3.75999 10.8258C3.7315 10.8543 3.72453 10.8613 3.69604 10.8897C3.64487 10.9409 3.68326 10.9025 3.63209 10.9537C3.62143 10.9644 3.61078 10.975 3.60012 10.9857C3.58946 10.9963 3.57881 11.007 3.56815 11.0176C3.52836 11.0574 3.544 11.0418 3.50421 11.0816C3.44786 11.1379 3.49664 11.0891 3.44029 11.1455C3.42963 11.1562 3.41898 11.1668 3.40833 11.1775C3.39767 11.1881 3.38702 11.1988 3.37637 11.2094C3.3337 11.2521 3.35513 11.2307 3.31246 11.2733C3.25559 11.3302 3.11377 11.472 3.05699 11.5288C3.04636 11.5394 3.03572 11.5501 3.02508 11.5607C3.01444 11.5713 3.00381 11.582 2.99317 11.5926C2.98254 11.6032 2.97191 11.6139 2.96127 11.6245C2.95064 11.6351 2.94001 11.6458 2.92938 11.6564C2.91874 11.667 2.90811 11.6777 2.89749 11.6883C2.88686 11.6989 2.87623 11.7096 2.8656 11.7202C2.85497 11.7308 2.84435 11.7414 2.83372 11.7521C2.8231 11.7627 2.81248 11.7733 2.80185 11.7839C2.79123 11.7946 2.78061 11.8052 2.76999 11.8158C2.75937 11.8264 2.74875 11.837 2.73813 11.8477C2.72751 11.8583 2.7169 11.8689 2.70628 11.8795C2.69567 11.8901 2.68505 11.9007 2.67444 11.9113C2.59643 11.9894 2.62512 11.9607 2.54715 12.0386C2.5092 12.0766 2.33075 12.255 2.293 12.2928C2.20416 12.3816 2.25494 12.3308 2.16616 12.4196C2.1556 12.4302 2.14504 12.4407 2.13448 12.4513C2.12392 12.4619 2.11336 12.4724 2.10281 12.483C2.09226 12.4935 2.0817 12.5041 2.07115 12.5146C2.0606 12.5252 2.05005 12.5357 2.03951 12.5463C2.02896 12.5568 2.01841 12.5674 2.00787 12.5779C1.99733 12.5885 1.98679 12.599 1.97625 12.6095C1.96571 12.6201 1.95517 12.6306 1.94464 12.6411C1.9341 12.6517 1.92357 12.6622 1.91304 12.6727C1.90251 12.6833 1.89198 12.6938 1.88146 12.7043C1.87093 12.7149 1.86041 12.7254 1.84989 12.7359C1.83937 12.7464 1.82885 12.7569 1.81833 12.7675C1.80781 12.778 1.7973 12.7885 1.78678 12.799C1.70207 12.8837 1.74539 12.8404 1.66075 12.925C1.65026 12.9355 1.63976 12.946 1.62928 12.9565C1.61879 12.967 1.6083 12.9775 1.59782 12.988C1.55301 13.0328 1.57973 13.0061 1.53495 13.0508C1.47869 13.1071 1.46557 13.1202 1.40939 13.1764C1.39894 13.1868 1.38849 13.1973 1.37805 13.2077C1.3676 13.2182 1.35716 13.2286 1.34672 13.2391C1.33627 13.2495 1.32584 13.2599 1.3154 13.2704C1.30497 13.2808 1.29453 13.2913 1.2841 13.3017C1.2434 13.3424 1.07468 13.5111 1.03437 13.5514C0.944393 13.6414 0.999816 13.586 0.909946 13.6758C0.899591 13.6862 0.889239 13.6965 0.87889 13.7069C0.868542 13.7172 0.858196 13.7276 0.847854 13.7379C0.837513 13.7483 0.827174 13.7586 0.816839 13.7689C0.806504 13.7793 0.796172 13.7896 0.785844 13.7999C0.775516 13.8103 0.765191 13.8206 0.75487 13.8309C0.744549 13.8412 0.734231 13.8516 0.723917 13.8619C0.715539 13.8702 0.670424 13.9154 0.662074 13.9237C0.651774 13.934 0.641478 13.9443 0.631185 13.9546C0.620892 13.9649 0.610603 13.9752 0.600318 13.9855C0.585285 14.0005 0.553652 14.0321 0.538649 14.0471C0.528379 14.0574 0.518112 14.0677 0.507849 14.0779C0.497586 14.0882 0.487327 14.0985 0.477071 14.1087C0.466816 14.119 0.456564 14.1292 0.446316 14.1395C0.436069 14.1497 0.425825 14.16 0.415585 14.1702C0.408202 14.1776 0.300149 14.2856 0.292893 14.2929L1.70711 15.7071Z" fill="black"/>
</g>
<defs>
<clipPath id="clip0_114_4">
<rect width="16" height="16" fill="white"/>
</clipPath>
</defs>
</svg>
