<svg width="16" height="16" viewBox="0 0 16 16" fill="none" xmlns="http://www.w3.org/2000/svg">
<g clip-path="url(#clip0_106_116)">
<path d="M14.3778 8C15.3673 7.19161 16 5.96241 16 4.5883C16 2.15967 14.0239 0.184113 11.5958 0.184113H8V2.1691H9.61082C10.9447 2.1691 12.03 3.25439 12.03 4.5883C12.03 5.92221 10.9447 7.0075 9.61082 7.0075H8V8.99249H9.61082C10.9447 8.99249 12.03 10.0778 12.03 11.4117C12.03 12.7456 10.9447 13.8309 9.61082 13.8309H8V15.8159H11.5958C14.0239 15.8159 16 13.8403 16 11.4117C16 10.0376 15.3673 8.80838 14.3778 8Z" fill="black"/>
<path d="M5.95497 13.8309V8.99249H8.00001V7.0075H5.95497V2.1691H8.00001V0.184113H0V2.1691H1.98499V13.8309H0V15.8159H8.00001V13.8309H5.95497Z" fill="black"/>
</g>
<defs>
<clipPath id="clip0_106_116">
<rect width="16" height="16" fill="white"/>
</clipPath>
</defs>
</svg>
