<svg width="16" height="16" viewBox="0 0 16 16" fill="none" xmlns="http://www.w3.org/2000/svg">
<g clip-path="url(#clip0_122_2)">
<path d="M10.7949 3.77121C11.0553 3.51085 11.0553 3.08875 10.7949 2.8284L8.90933 0.942787C8.3886 0.422087 7.5444 0.422086 7.02366 0.942787L5.13807 2.8284C4.87772 3.08875 4.87772 3.51085 5.13807 3.77121C5.39842 4.03155 5.82052 4.03155 6.08088 3.77121L7.33333 2.51874V7.36685H2.48523L3.7377 6.11436C3.99805 5.85401 3.99805 5.4319 3.7377 5.17155C3.47735 4.9112 3.05524 4.9112 2.79489 5.17155L0.909277 7.05718C0.38858 7.57785 0.388577 8.42211 0.909277 8.94278L2.79489 10.8284C3.05524 11.0888 3.47735 11.0888 3.7377 10.8284C3.99805 10.568 3.99805 10.146 3.7377 9.88557L2.55227 8.70018H7.33333V13.4812L6.08088 12.2288C5.82052 11.9684 5.39842 11.9684 5.13807 12.2288C4.87772 12.4891 4.87772 12.9112 5.13807 13.1716L7.02366 15.0572C7.5444 15.5779 8.3886 15.5779 8.90933 15.0572L10.7949 13.1716C11.0553 12.9112 11.0553 12.4891 10.7949 12.2288C10.5346 11.9684 10.1125 11.9684 9.85213 12.2288L8.66666 13.4142V8.70018H13.3807L12.1953 9.88557C11.9349 10.146 11.9349 10.568 12.1953 10.8284C12.4556 11.0888 12.8777 11.0888 13.1381 10.8284L15.0237 8.94278C15.5444 8.42211 15.5444 7.57785 15.0237 7.05718L13.1381 5.17155C12.8777 4.9112 12.4556 4.9112 12.1953 5.17155C11.9349 5.4319 11.9349 5.85401 12.1953 6.11436L13.4477 7.36685H8.66666V2.58577L9.85213 3.77121C10.1125 4.03155 10.5346 4.03155 10.7949 3.77121Z" fill="#0F0F0F"/>
</g>
<defs>
<clipPath id="clip0_122_2">
<rect width="16" height="16" fill="white"/>
</clipPath>
</defs>
</svg>
