<svg width="16" height="16" viewBox="0 0 16 16" fill="none" xmlns="http://www.w3.org/2000/svg">
<g clip-path="url(#clip0_2_19)">
<path d="M15.3333 14H9.57801L15.0273 8.53001C16.32 7.23267 16.32 5.12134 15.0273 3.82334L12.858 1.64667C12.228 1.01467 11.3893 0.666672 10.4973 0.666672C9.60534 0.666672 8.76601 1.01467 8.13734 1.64534L0.972674 8.78334C-0.319993 10.0807 -0.319993 12.192 0.972674 13.4893L2.02801 14.5487C2.52467 15.0473 3.21267 15.3333 3.91734 15.3333H15.3333C15.702 15.3333 16 15.0347 16 14.6667C16 14.2987 15.702 14 15.3333 14ZM9.08001 2.58801C9.45801 2.20867 9.96134 2.00001 10.4973 2.00001C11.0333 2.00001 11.536 2.20867 11.914 2.58801L14.0833 4.76467C14.8587 5.54267 14.8587 6.81001 14.0833 7.58867L10.77 10.9147L5.76401 5.89201L9.08001 2.58801ZM3.91734 14C3.56001 14 3.22467 13.8607 2.97267 13.608L1.91667 12.5487C1.14134 11.7707 1.14134 10.504 1.91534 9.72734L4.82001 6.83334L9.82934 11.86L7.69667 14.0007L3.91734 14Z" fill="black"/>
</g>
<defs>
<clipPath id="clip0_2_19">
<rect width="16" height="16" fill="white"/>
</clipPath>
</defs>
</svg>
