<svg width="16" height="16" viewBox="0 0 16 16" fill="none" xmlns="http://www.w3.org/2000/svg">
    <g clip-path="url(#clip0_2_19)">
        <path d="M15.3332 14.5455H9.57673L15.0271 8.57818C16.3201 7.16291 16.3201 4.85964 15.0271 3.44364L12.8574 1.06909C12.2273 0.379636 11.3884 0 10.4962 0C9.60407 0 8.76457 0.379636 8.13578 1.06764L0.969692 8.85455C-0.323231 10.2698 -0.323231 12.5731 0.969692 13.9884L2.02523 15.144C2.522 15.688 3.21014 16 3.91494 16H15.3332C15.7019 16 16 15.6742 16 15.2727C16 14.8713 15.7019 14.5455 15.3332 14.5455ZM9.07863 2.096C9.4567 1.68218 9.96014 1.45455 10.4962 1.45455C11.0323 1.45455 11.5351 1.68218 11.9132 2.096L14.083 4.47055C14.8584 5.31927 14.8584 6.70182 14.083 7.55127L10.769 11.1796L5.76197 5.70036L9.07863 2.096ZM3.91494 14.5455C3.55754 14.5455 3.22214 14.3935 2.97009 14.1178L1.91388 12.9622C1.13839 12.1135 1.13839 10.7316 1.91254 9.88436L4.81779 6.72727L9.82811 12.2109L7.69502 14.5462L3.91494 14.5455Z" fill="black"/>
    </g>
    <defs>
        <clipPath id="clip0_2_19">
            <rect width="16" height="16" fill="white"/>
        </clipPath>
    </defs>
</svg>
