<svg width="16" height="16" viewBox="0 0 16 16" fill="none" xmlns="http://www.w3.org/2000/svg">
<g clip-path="url(#clip0_106_120)">
<path d="M11.6835 11.2823C11.6835 13.0018 9.69928 13.6119 8.00003 13.6119C6.16752 13.6119 4.79854 12.9745 4.42724 11.9485L2.6308 12.5986C2.9763 13.5533 3.70853 14.3285 4.74839 14.8403C5.65509 15.2865 6.77949 15.5224 8.00003 15.5224C11.3459 15.5224 13.594 13.8184 13.594 11.2823C13.594 10.3538 13.3408 9.57578 12.8394 8.95522H7.92719C10.5372 9.38559 11.6835 9.74762 11.6835 11.2823Z" fill="black"/>
<path d="M4.31651 4.71772C4.31651 2.99817 6.3008 2.38807 8 2.38807C9.83188 2.38807 11.2008 3.02515 11.5724 4.05068L13.3685 3.39965C13.0227 2.44543 12.2903 1.67074 11.2508 1.15931C10.3443 0.713365 9.22015 0.477615 8 0.477615C4.65409 0.477615 2.40607 2.18159 2.40607 4.71772C2.40607 5.64634 2.65949 6.42437 3.16146 7.04479H8.0843C5.46613 6.61369 4.31651 6.25324 4.31651 4.71772Z" fill="black"/>
<path d="M16 7.04478H0V8.95523H16V7.04478Z" fill="black"/>
</g>
<defs>
<clipPath id="clip0_106_120">
<rect width="16" height="16" fill="white"/>
</clipPath>
</defs>
</svg>
